<?xml version="1.0" encoding="utf-8"?>
<svg id="master-artboard" viewBox="0 0 841.9 595.3" version="1.1" xmlns="http://www.w3.org/2000/svg" x="0px" y="0px" width="841.9000244140625px" height="595.2999877929688px" enable-background="new 0 0 841.9 595.3">
<g transform="matrix(0.9999999999999999, 0, 0, 0.9999999999999999, 14.142078407117225, 13.010712134547852)">
		<g>
			<path fill="#FFC62D" d="M258.5,254.4L258.5,254.4l116.3,0v0c0-18.9-15.3-34.2-34.2-34.2h-47.9&#10;&#9;&#9;&#9;&#9;C273.8,220.2,258.5,235.5,258.5,254.4z"/>
			<g>
				<g>
					<path d="M 374.800006 157.300003 A 12.7 12.7 0 0 1 362.100006 170.000003 A 12.7 12.7 0 0 1 349.400006 157.300003 A 12.7 12.7 0 0 1 362.100006 144.600003 A 12.7 12.7 0 0 1 374.800006 157.300003 Z" fill="#F8AA97"/>
					<path d="M 369.600006 157.300003 A 7.5 7.5 0 0 1 362.100006 164.800003 A 7.5 7.5 0 0 1 354.600006 157.300003 A 7.5 7.5 0 0 1 362.100006 149.800003 A 7.5 7.5 0 0 1 369.600006 157.300003 Z" fill="#F58A74"/>
				</g>
				<g>
					<path d="M 283.900012 157.300003 A 12.7 12.7 0 0 1 271.200012 170.000003 A 12.7 12.7 0 0 1 258.500012 157.300003 A 12.7 12.7 0 0 1 271.200012 144.600003 A 12.7 12.7 0 0 1 283.900012 157.300003 Z" fill="#F8AA97"/>
					<path d="M 278.700012 157.300003 A 7.5 7.5 0 0 1 271.200012 164.800003 A 7.5 7.5 0 0 1 263.700012 157.300003 A 7.5 7.5 0 0 1 271.200012 149.800003 A 7.5 7.5 0 0 1 278.700012 157.300003 Z" fill="#F58A74"/>
				</g>
			</g>
			<path fill="#FAA62C" d="M316.6,240.4c10.1,0,18.2-8.2,18.2-18.2v-2h-36.5v2C298.4,232.2,306.6,240.4,316.6,240.4z"/>
			<path fill="#F8AA97" d="M304.8,183.5v38.7c0,6.5,5.3,11.9,11.9,11.9h0c6.5,0,11.9-5.3,11.9-11.9v-38.7H304.8z"/>
			<path fill="#F58A74" d="M304.8,202.8c0,6.5,5.2,12,11.7,12.1c0,0,0.1,0,0.1,0l0,0c0,0,0.1,0,0.1,0c6.5,0,11.7-5.5,11.7-12.1&#10;&#9;&#9;&#9;&#9;v-15.6h-23.7V202.8z"/>
			<path fill="#F8AA97" d="M275.4,122.5v40.6c0,22.7,18.4,41.2,41.2,41.2h0c22.7,0,41.2-18.4,41.2-41.2v-40.6&#10;&#9;&#9;&#9;&#9;c0-15.3-12.4-27.7-27.7-27.7h-27C287.8,94.8,275.4,107.2,275.4,122.5z"/>
			<g>
				<path d="M 299.4 144.600006 A 4.9 4.9 0 0 1 294.5 149.500006 A 4.9 4.9 0 0 1 289.6 144.600006 A 4.9 4.9 0 0 1 294.5 139.700006 A 4.9 4.9 0 0 1 299.4 144.600006 Z" fill="#562617"/>
				<path d="M 343.600012 144.600006 A 4.9 4.9 0 0 1 338.700012 149.500006 A 4.9 4.9 0 0 1 333.800012 144.600006 A 4.9 4.9 0 0 1 338.700012 139.700006 A 4.9 4.9 0 0 1 343.600012 144.600006 Z" fill="#562617"/>
			</g>
			<path fill="#FFFFFF" d="M301.7,167c0,0.5,0,1,0,1.5c0,8,6.7,14.8,14.9,14.9l0,0c8.2-0.1,14.9-6.9,14.9-14.9c0-0.5,0-1,0-1.5&#10;&#9;&#9;&#9;&#9;C321.7,165.5,311.6,165.5,301.7,167z"/>
		</g>
		<path fill="#552419" d="M360.9,111.2c-7-23.9-31.6-29.3-44.2-29.3c-12.6,0-37.3,5.3-44.3,29.3s3.1,34.2,3.1,34.2&#10;&#9;&#9;&#9;s11.6-12.9,11.6-34.7c0,0,12.4,3.2,29.6,3.2c17.2,0,29.5-3.2,29.5-3.2c0,21.8,11.6,34.7,11.6,34.7S367.9,135.1,360.9,111.2z"/>
	</g><g transform="matrix(1, 0, 0, 1, 2.842170943040401e-14, 1.4210854715202004e-14)">
			<path fill="#552419" d="M108,106.3l-43.4-8.9c0,0-45.2,60.9,5.4,99.4H108L108,106.3z"/>
			<path fill="#552419" d="M108,106.3l43.4-8.9c0,0,45.2,60.9-5.4,99.4H108L108,106.3z"/>
		</g><path fill="#9B1C51" d="M49.8,254.4L49.8,254.4l116.3,0v0c0-18.9-15.3-34.2-34.2-34.2H84C65.1,220.2,49.8,235.5,49.8,254.4z" transform="matrix(1, 0, 0, 1, 4.263256414560601e-14, 2.1316282072803006e-14)"/><g transform="matrix(1, 0, 0, 1, 4.263256414560601e-14, 2.1316282072803006e-14)">
					<path d="M 166.099994 157.300003 A 12.7 12.7 0 0 1 153.399994 170.000003 A 12.7 12.7 0 0 1 140.699994 157.300003 A 12.7 12.7 0 0 1 153.399994 144.600003 A 12.7 12.7 0 0 1 166.099994 157.300003 Z" fill="#F8AA97"/>
					<path d="M 160.899994 157.300003 A 7.5 7.5 0 0 1 153.399994 164.800003 A 7.5 7.5 0 0 1 145.899994 157.300003 A 7.5 7.5 0 0 1 153.399994 149.800003 A 7.5 7.5 0 0 1 160.899994 157.300003 Z" fill="#F58A74"/>
				</g><path d="M 75.2 157.300003 A 12.7 12.7 0 0 1 62.5 170.000003 A 12.7 12.7 0 0 1 49.8 157.300003 A 12.7 12.7 0 0 1 62.5 144.600003 A 12.7 12.7 0 0 1 75.2 157.300003 Z" fill="#F8AA97" transform="matrix(1, 0, 0, 1, 4.263256414560601e-14, 2.1316282072803006e-14)"/><path d="M 70 157.300003 A 7.5 7.5 0 0 1 62.5 164.800003 A 7.5 7.5 0 0 1 55 157.300003 A 7.5 7.5 0 0 1 62.5 149.800003 A 7.5 7.5 0 0 1 70 157.300003 Z" fill="#F58A74" transform="matrix(1, 0, 0, 1, 4.263256414560601e-14, 2.1316282072803006e-14)"/><path fill="#AA4D67" d="M108,240.4c10.1,0,18.2-8.2,18.2-18.2v-2H89.7v2C89.7,232.2,97.9,240.4,108,240.4z" transform="matrix(1, 0, 0, 1, 4.263256414560601e-14, 2.1316282072803006e-14)"/><path fill="#F8AA97" d="M96.1,183.5v38.7c0,6.5,5.3,11.9,11.9,11.9h0c6.5,0,11.9-5.3,11.9-11.9v-38.7H96.1z" transform="matrix(1, 0, 0, 1, 4.263256414560601e-14, 2.1316282072803006e-14)"/><path fill="#F58A74" d="M96.1,202.8c0,6.5,5.2,12,11.7,12.1c0,0,0.1,0,0.1,0l0,0c0,0,0.1,0,0.1,0c6.5,0,11.7-5.5,11.7-12.1v-15.6&#10;&#9;&#9;&#9;&#9;H96.1V202.8z" transform="matrix(1, 0, 0, 1, 4.263256414560601e-14, 2.1316282072803006e-14)"/><path fill="#F8AA97" d="M66.8,122.5v40.6c0,22.7,18.4,41.2,41.2,41.2h0c22.7,0,41.2-18.4,41.2-41.2v-40.6&#10;&#9;&#9;&#9;&#9;c0-15.3-12.4-27.7-27.7-27.7h-27C79.2,94.8,66.8,107.2,66.8,122.5z" transform="matrix(1, 0, 0, 1, 4.263256414560601e-14, 2.1316282072803006e-14)"/><path d="M 90.800002 144.600006 A 4.9 4.9 0 0 1 85.900002 149.500006 A 4.9 4.9 0 0 1 81.000001 144.600006 A 4.9 4.9 0 0 1 85.900002 139.700006 A 4.9 4.9 0 0 1 90.800002 144.600006 Z" fill="#562617" transform="matrix(1, 0, 0, 1, 4.263256414560601e-14, 2.1316282072803006e-14)"/><path d="M 135.000006 144.600006 A 4.9 4.9 0 0 1 130.100006 149.500006 A 4.9 4.9 0 0 1 125.200006 144.600006 A 4.9 4.9 0 0 1 130.100006 139.700006 A 4.9 4.9 0 0 1 135.000006 144.600006 Z" fill="#562617" transform="matrix(1, 0, 0, 1, 4.263256414560601e-14, 2.1316282072803006e-14)"/><path fill="#FFFFFF" d="M93.1,167c0,0.5,0,1,0,1.5c0,8,6.7,14.8,14.9,14.9l0,0c8.2-0.1,14.9-6.9,14.9-14.9c0-0.5,0-1,0-1.5&#10;&#9;&#9;&#9;&#9;C113,165.5,103,165.5,93.1,167z" transform="matrix(1, 0, 0, 1, 4.263256414560601e-14, 2.1316282072803006e-14)"/><path fill="#552419" d="M108,81.9c-65.9,0-45.5,48.7-45.5,48.7h25.7l2.6-12.5l2.6,12.5v0h37.8l2.6-12.5l2.6,12.5v0h17.2&#10;&#9;&#9;&#9;C153.4,130.6,173.9,81.9,108,81.9z" transform="matrix(1, 0, 0, 1, 2.842170943040401e-14, 1.4210854715202004e-14)"/><g transform="matrix(1, 0, 0, 1, 2.842170943040401e-14, 1.4210854715202004e-14)">
			<path fill="#360B00" d="M66.9,502c0,0,17.3,15.9,40.9,15.9V374.2l-45.4,24.5L53,468L66.9,502z"/>
			<path fill="#360B00" d="M149,502c0,0-17.3,15.9-40.9,15.9V374.2l45.4,24.5l9.4,69.4L149,502z"/>
		</g><path fill="#552419" d="M171.3,424.7c-11.5-56.2-27.4-75.5-63.4-75.5v34.5c0,0,49.4,26.9,41.2,118.3&#10;&#9;&#9;&#9;C149.1,502,182.8,480.9,171.3,424.7z" transform="matrix(1, 0, 0, 1, 2.842170943040401e-14, 1.4210854715202004e-14)"/><path fill="#EC008C" d="M49.7,521.7L49.7,521.7l116.3,0v0c0-18.9-15.3-34.2-34.2-34.2H83.9C65.1,487.5,49.7,502.8,49.7,521.7z" transform="matrix(1, 0, 0, 1, 4.263256414560601e-14, 2.1316282072803006e-14)"/><path fill="#F287B7" d="M107.8,521.7h0.2c21.7-8.6,25.5-33.2,25.6-34.1c-0.6,0-1.2,0-1.8,0h-10.1H108h-0.2H94H83.9&#10;&#9;&#9;&#9;&#9;c-0.6,0-1.2,0-1.8,0C82.3,488.5,86.1,513.2,107.8,521.7z" transform="matrix(1, 0, 0, 1, 4.263256414560601e-14, 2.1316282072803006e-14)"/><path fill="#F8AA97" d="M128,487.5h-9.3H108h-0.1H97.1h-9.3c0,0,2.8,20.5,20,27.5v0.1c0,0,0,0,0.1,0c0,0,0,0,0.1,0V515&#10;&#9;&#9;&#9;&#9;C125.3,508,128,487.5,128,487.5z" transform="matrix(1, 0, 0, 1, 4.263256414560601e-14, 2.1316282072803006e-14)"/><g transform="matrix(1, 0, 0, 1, 4.263256414560601e-14, 2.1316282072803006e-14)">
					<path d="M 166.099994 424.600006 A 12.7 12.7 0 0 1 153.399994 437.300006 A 12.7 12.7 0 0 1 140.699994 424.600006 A 12.7 12.7 0 0 1 153.399994 411.900006 A 12.7 12.7 0 0 1 166.099994 424.600006 Z" fill="#F8AA97"/>
					<path d="M 160.899994 424.600006 A 7.5 7.5 0 0 1 153.399994 432.100006 A 7.5 7.5 0 0 1 145.899994 424.600006 A 7.5 7.5 0 0 1 153.399994 417.100006 A 7.5 7.5 0 0 1 160.899994 424.600006 Z" fill="#F58A74"/>
				</g><path d="M 75.100001 424.600006 A 12.7 12.7 0 0 1 62.400002 437.300006 A 12.7 12.7 0 0 1 49.700002 424.600006 A 12.7 12.7 0 0 1 62.400002 411.900006 A 12.7 12.7 0 0 1 75.100001 424.600006 Z" fill="#F8AA97" transform="matrix(1, 0, 0, 1, 4.263256414560601e-14, 2.1316282072803006e-14)"/><path d="M 69.900002 424.600006 A 7.5 7.5 0 0 1 62.400002 432.100006 A 7.5 7.5 0 0 1 54.900002 424.600006 A 7.5 7.5 0 0 1 62.400002 417.100006 A 7.5 7.5 0 0 1 69.900002 424.600006 Z" fill="#F58A74" transform="matrix(1, 0, 0, 1, 4.263256414560601e-14, 2.1316282072803006e-14)"/><path fill="#F8AA97" d="M96,450.8v38.7c0,6.5,5.3,11.9,11.9,11.9h0c6.5,0,11.9-5.3,11.9-11.9v-38.7H96z" transform="matrix(1, 0, 0, 1, 4.263256414560601e-14, 2.1316282072803006e-14)"/><path fill="#F58A74" d="M96,470.1c0,6.5,5.2,12,11.7,12.1c0,0,0.1,0,0.1,0l0,0c0,0,0.1,0,0.1,0c6.5,0,11.7-5.5,11.7-12.1v-15.6&#10;&#9;&#9;&#9;&#9;H96V470.1z" transform="matrix(1, 0, 0, 1, 4.263256414560601e-14, 2.1316282072803006e-14)"/><path fill="#F8AA97" d="M66.7,389.8v40.6c0,22.7,18.4,41.2,41.2,41.2h0c22.7,0,41.2-18.4,41.2-41.2v-40.6&#10;&#9;&#9;&#9;&#9;c0-15.3-12.4-27.7-27.7-27.7h-27C79.1,362.1,66.7,374.5,66.7,389.8z" transform="matrix(1, 0, 0, 1, 4.263256414560601e-14, 2.1316282072803006e-14)"/><path d="M 90.700003 411.899994 A 4.9 4.9 0 0 1 85.800003 416.799994 A 4.9 4.9 0 0 1 80.900003 411.899994 A 4.9 4.9 0 0 1 85.800003 406.999994 A 4.9 4.9 0 0 1 90.700003 411.899994 Z" fill="#562617" transform="matrix(1, 0, 0, 1, 4.263256414560601e-14, 2.1316282072803006e-14)"/><path d="M 134.9 411.899994 A 4.9 4.9 0 0 1 130 416.799994 A 4.9 4.9 0 0 1 125.1 411.899994 A 4.9 4.9 0 0 1 130 406.999994 A 4.9 4.9 0 0 1 134.9 411.899994 Z" fill="#562617" transform="matrix(1, 0, 0, 1, 4.263256414560601e-14, 2.1316282072803006e-14)"/><path fill="#FFFFFF" d="M93,434.3c0,0.5,0,1,0,1.5c0,8,6.7,14.8,14.9,14.9l0,0c8.2-0.1,14.9-6.9,14.9-14.9c0-0.5,0-1,0-1.5&#10;&#9;&#9;&#9;&#9;C112.9,432.8,102.9,432.8,93,434.3z" transform="matrix(1, 0, 0, 1, 4.263256414560601e-14, 2.1316282072803006e-14)"/><path d="M 157.399997 435.5 A 2.7 2.7 0 0 1 154.699997 438.2 A 2.7 2.7 0 0 1 151.999997 435.5 A 2.7 2.7 0 0 1 154.699997 432.8 A 2.7 2.7 0 0 1 157.399997 435.5 Z" fill="#B9E5FB" transform="matrix(1, 0, 0, 1, 4.263256414560601e-14, 2.1316282072803006e-14)"/><path d="M 63.400001 435.5 A 2.7 2.7 0 0 1 60.700001 438.2 A 2.7 2.7 0 0 1 58.000001 435.5 A 2.7 2.7 0 0 1 60.700001 432.8 A 2.7 2.7 0 0 1 63.400001 435.5 Z" fill="#B9E5FB" transform="matrix(1, 0, 0, 1, 4.263256414560601e-14, 2.1316282072803006e-14)"/><path fill="#552419" d="M107.9,349.2l0.1,24.4c0,0,2.6,9.1,10.7,18.8c1.5,1.5,3.1,3.2,4.8,5.2c6.1,5.9,14.4,11.6,25.5,15.1h19.6&#10;&#9;&#9;&#9;C157.3,365.8,141.2,349.2,107.9,349.2z" transform="matrix(1, 0, 0, 1, 2.842170943040401e-14, 1.4210854715202004e-14)"/><path fill="#552419" d="M66.2,492.5c-4.1-84.4,41.8-118.2,41.8-118.2v-25c-36,0-51.9,19.3-63.4,75.5c-8.3,40.4,6.9,62.7,16,72&#10;&#9;&#9;&#9;C62.3,495.1,64.2,493.7,66.2,492.5z" transform="matrix(1, 0, 0, 1, 2.842170943040401e-14, 1.4210854715202004e-14)"/><path fill="#1C75BC" d="M467.1,521.7L467.1,521.7l116.3,0v0c0-18.9-15.3-34.2-34.2-34.2h-47.9&#10;&#9;&#9;&#9;C482.4,487.5,467.1,502.8,467.1,521.7z" transform="matrix(1, 0, 0, 1, 2.842170943040401e-14, 1.4210854715202004e-14)"/><path d="M 501.20001220703125 487.5 L 525.2999877929688 521.7000122070312 L 549.4000244140625 487.5 Z" fill="#27AAE1" transform="matrix(1, 0, 0, 1, 2.842170943040401e-14, 1.4210854715202004e-14)"/><path d="M 506 487.5 L 525.2999877929688 514.7999877929688 L 544.5 487.5 Z" fill="#DCDDDE" transform="matrix(1, 0, 0, 1, 2.842170943040401e-14, 1.4210854715202004e-14)"/><g transform="matrix(1, 0, 0, 1, 4.263256414560601e-14, 2.1316282072803006e-14)">
				<path d="M 583.400012 424.600006 A 12.7 12.7 0 0 1 570.700012 437.300006 A 12.7 12.7 0 0 1 558.000012 424.600006 A 12.7 12.7 0 0 1 570.700012 411.900006 A 12.7 12.7 0 0 1 583.400012 424.600006 Z" fill="#F8AA97"/>
				<path d="M 578.200012 424.600006 A 7.5 7.5 0 0 1 570.700012 432.100006 A 7.5 7.5 0 0 1 563.200012 424.600006 A 7.5 7.5 0 0 1 570.700012 417.100006 A 7.5 7.5 0 0 1 578.200012 424.600006 Z" fill="#F58A74"/>
			</g><path d="M 492.499988 424.600006 A 12.7 12.7 0 0 1 479.799988 437.300006 A 12.7 12.7 0 0 1 467.099988 424.600006 A 12.7 12.7 0 0 1 479.799988 411.900006 A 12.7 12.7 0 0 1 492.499988 424.600006 Z" fill="#F8AA97" transform="matrix(1, 0, 0, 1, 4.263256414560601e-14, 2.1316282072803006e-14)"/><path d="M 487.299988 424.600006 A 7.5 7.5 0 0 1 479.799988 432.100006 A 7.5 7.5 0 0 1 472.299988 424.600006 A 7.5 7.5 0 0 1 479.799988 417.100006 A 7.5 7.5 0 0 1 487.299988 424.600006 Z" fill="#F58A74" transform="matrix(1, 0, 0, 1, 4.263256414560601e-14, 2.1316282072803006e-14)"/><path d="M 513.4000244140625 450.6000061035156 L 513.4000244140625 481.29998779296875 L 525.2999877929688 496.1000061035156 L 537.0999755859375 481.29998779296875 L 537.0999755859375 450.6000061035156 Z" fill="#F8AA97" transform="matrix(1, 0, 0, 1, 2.842170943040401e-14, 1.4210854715202004e-14)"/><path fill="#F58A74" d="M513.4,470.1c0,6.5,5.2,12,11.7,12.1c0,0,0.1,0,0.1,0l0,0c0,0,0.1,0,0.1,0c6.5,0,11.7-5.5,11.7-12.1v-15.6&#10;&#9;&#9;&#9;h-23.7V470.1z" transform="matrix(1, 0, 0, 1, 2.842170943040401e-14, 1.4210854715202004e-14)"/><path fill="#F8AA97" d="M484.1,389.8v40.6c0,22.7,18.4,41.2,41.2,41.2h0c22.7,0,41.2-18.4,41.2-41.2v-40.6&#10;&#9;&#9;&#9;c0-15.3-12.4-27.7-27.7-27.7h-27C496.5,362.1,484.1,374.5,484.1,389.8z" transform="matrix(1, 0, 0, 1, 2.842170943040401e-14, 1.4210854715202004e-14)"/><path d="M 508.100012 411.899994 A 4.9 4.9 0 0 1 503.200012 416.799994 A 4.9 4.9 0 0 1 498.300012 411.899994 A 4.9 4.9 0 0 1 503.200012 406.999994 A 4.9 4.9 0 0 1 508.100012 411.899994 Z" fill="#562617" transform="matrix(1, 0, 0, 1, 4.263256414560601e-14, 2.1316282072803006e-14)"/><path d="M 552.199988 411.899994 A 4.9 4.9 0 0 1 547.299988 416.799994 A 4.9 4.9 0 0 1 542.399988 411.899994 A 4.9 4.9 0 0 1 547.299988 406.999994 A 4.9 4.9 0 0 1 552.199988 411.899994 Z" fill="#562617" transform="matrix(1, 0, 0, 1, 4.263256414560601e-14, 2.1316282072803006e-14)"/><path fill="#E19B8A" d="M560.7,451.4c-4.2-6.9-14.4-18.3-35.4-18.3c-21,0-31.2,11.4-35.4,18.3c7.2,12,20.3,20.1,35.4,20.1l0,0&#10;&#9;&#9;&#9;C540.3,471.6,553.5,463.5,560.7,451.4z" transform="matrix(1, 0, 0, 1, 2.842170943040401e-14, 1.4210854715202004e-14)"/><path fill="#FFFFFF" d="M510.4,434.3c0,0.5,0,1,0,1.5c0,8,6.7,14.8,14.9,14.9l0,0c8.2-0.1,14.9-6.9,14.9-14.9c0-0.5,0-1,0-1.5&#10;&#9;&#9;&#9;C530.3,432.8,520.2,432.8,510.4,434.3z" transform="matrix(1, 0, 0, 1, 2.842170943040401e-14, 1.4210854715202004e-14)"/><path fill="#552419" d="M525.3,429.4c-11.2,0.1-20.3,5.6-20.3,12c0,0.4,0,0.8,0,1.2c9.2,0.8,20.3-2.9,20.3-2.9s11.1,3.7,20.3,2.9&#10;&#9;&#9;&#9;c0,0,0,0,0,0c0,0,0,0,0,0c0-0.4,0-0.8,0-1.2C545.6,434.9,536.5,429.5,525.3,429.4z" transform="matrix(1, 0, 0, 1, 2.842170943040401e-14, 1.4210854715202004e-14)"/><path fill="#552419" d="M569.5,378.5c-7-23.9-31.6-29.3-44.2-29.3c-12.6,0-37.3,5.3-44.3,29.3c-7,23.9,3.1,34.2,3.1,34.2&#10;&#9;&#9;&#9;s11.6-12.9,11.6-34.7c0,0,12.4,3.2,29.6,3.2c17.2,0,29.5-3.2,29.5-3.2c0,21.8,11.6,34.7,11.6,34.7S576.6,402.4,569.5,378.5z" transform="matrix(1, 0, 0, 1, 2.842170943040401e-14, 1.4210854715202004e-14)"/><path fill="#552419" d="M495.7,377.9c0,0,10.1,20,44.5,18.8C540.2,396.8,534.9,380.2,495.7,377.9z" transform="matrix(1, 0, 0, 1, 2.842170943040401e-14, 1.4210854715202004e-14)"/><path fill="#552419" d="M495.7,377.9c0,0,22,19.5,70.8,11.9c0,0,3.4-23.3-29.3-25.2C504.4,362.6,495.7,377.9,495.7,377.9z" transform="matrix(1, 0, 0, 1, 2.842170943040401e-14, 1.4210854715202004e-14)"/><path d="M 525.2999877929688 496.1000061035156 L 513.4000244140625 481.29998779296875 L 506 487.5 L 512.4000244140625 508.3999938964844 L 518.5999755859375 493.8999938964844 Z" fill="#F1F2F2" transform="matrix(1, 0, 0, 1, 4.263256414560601e-14, 2.1316282072803006e-14)"/><path d="M 525.2999877929688 496.1000061035156 L 537.0999755859375 481.29998779296875 L 544.5 487.5 L 538.2000122070312 508.3999938964844 L 532 493.8999938964844 Z" fill="#F1F2F2" transform="matrix(1, 0, 0, 1, 4.263256414560601e-14, 2.1316282072803006e-14)"/><path d="M 527.699988 502.200012 A 2.4 2.4 0 0 1 525.299988 504.600012 A 2.4 2.4 0 0 1 522.899988 502.200012 A 2.4 2.4 0 0 1 525.299988 499.800012 A 2.4 2.4 0 0 1 527.699988 502.200012 Z" fill="#808285" transform="matrix(1, 0, 0, 1, 2.842170943040401e-14, 1.4210854715202004e-14)"/><path fill="#F15A29" d="M258.5,521.7L258.5,521.7l116.3,0v0c0-18.9-15.3-34.2-34.2-34.2h-47.9&#10;&#9;&#9;&#9;C273.8,487.5,258.5,502.8,258.5,521.7z" transform="matrix(1, 0, 0, 1, 2.842170943040401e-14, 1.4210854715202004e-14)"/><path d="M 304.79998779296875 450.6000061035156 L 304.79998779296875 481.29998779296875 L 316.6000061035156 496.1000061035156 L 328.5 481.29998779296875 L 328.5 450.6000061035156 Z" fill="#F8AA97" transform="matrix(1, 0, 0, 1, 2.842170943040401e-14, 1.4210854715202004e-14)"/><path fill="#F58A74" d="M304.8,470.1c0,6.5,5.2,12,11.7,12.1c0,0,0.1,0,0.1,0l0,0c0,0,0.1,0,0.1,0c6.5,0,11.7-5.5,11.7-12.1v-15.6&#10;&#9;&#9;&#9;h-23.7V470.1z" transform="matrix(1, 0, 0, 1, 2.842170943040401e-14, 1.4210854715202004e-14)"/><path d="M 316.6000061035156 496.1000061035156 L 304.79998779296875 481.29998779296875 L 297.3999938964844 487.5 L 303.70001220703125 508.3999938964844 L 309.8999938964844 493.8999938964844 Z" fill="#F7941E" transform="matrix(1, 0, 0, 1, 4.263256414560601e-14, 2.1316282072803006e-14)"/><path d="M 316.6000061035156 496.1000061035156 L 328.5 481.29998779296875 L 335.79998779296875 487.5 L 329.5 508.3999938964844 L 323.29998779296875 493.8999938964844 Z" fill="#F7941E" transform="matrix(1, 0, 0, 1, 4.263256414560601e-14, 2.1316282072803006e-14)"/><path d="M 319.000006 502.200012 A 2.4 2.4 0 0 1 316.600006 504.600012 A 2.4 2.4 0 0 1 314.200006 502.200012 A 2.4 2.4 0 0 1 316.600006 499.800012 A 2.4 2.4 0 0 1 319.000006 502.200012 Z" fill="#FFFFFF" transform="matrix(1, 0, 0, 1, 4.263256414560601e-14, 2.1316282072803006e-14)"/><path d="M 319.000006 517.400024 A 2.4 2.4 0 0 1 316.600006 519.800025 A 2.4 2.4 0 0 1 314.200006 517.400024 A 2.4 2.4 0 0 1 316.600006 515.000024 A 2.4 2.4 0 0 1 319.000006 517.400024 Z" fill="#FFFFFF" transform="matrix(1, 0, 0, 1, 4.263256414560601e-14, 2.1316282072803006e-14)"/><g transform="matrix(1, 0, 0, 1, 4.263256414560601e-14, 2.1316282072803006e-14)">
				<g>
					<path d="M 374.800006 424.600006 A 12.7 12.7 0 0 1 362.100006 437.300006 A 12.7 12.7 0 0 1 349.400006 424.600006 A 12.7 12.7 0 0 1 362.100006 411.900006 A 12.7 12.7 0 0 1 374.800006 424.600006 Z" fill="#F8AA97"/>
					<path d="M 369.600006 424.600006 A 7.5 7.5 0 0 1 362.100006 432.100006 A 7.5 7.5 0 0 1 354.600006 424.600006 A 7.5 7.5 0 0 1 362.100006 417.100006 A 7.5 7.5 0 0 1 369.600006 424.600006 Z" fill="#F58A74"/>
				</g>
				<g>
					<path d="M 283.900012 424.600006 A 12.7 12.7 0 0 1 271.200012 437.300006 A 12.7 12.7 0 0 1 258.500012 424.600006 A 12.7 12.7 0 0 1 271.200012 411.900006 A 12.7 12.7 0 0 1 283.900012 424.600006 Z" fill="#F8AA97"/>
					<path d="M 278.700012 424.600006 A 7.5 7.5 0 0 1 271.200012 432.100006 A 7.5 7.5 0 0 1 263.700012 424.600006 A 7.5 7.5 0 0 1 271.200012 417.100006 A 7.5 7.5 0 0 1 278.700012 424.600006 Z" fill="#F58A74"/>
				</g>
			</g><path fill="#F8AA97" d="M275.4,403.3v27.1c0,22.7,18.4,41.2,41.2,41.2h0c22.7,0,41.2-18.4,41.2-41.2v-27.1&#10;&#9;&#9;&#9;&#9;c0-22.7-18.4-41.2-41.2-41.2h0C293.9,362.1,275.4,380.6,275.4,403.3z" transform="matrix(1, 0, 0, 1, 4.263256414560601e-14, 2.1316282072803006e-14)"/><path d="M 299.4 411.899994 A 4.9 4.9 0 0 1 294.5 416.799994 A 4.9 4.9 0 0 1 289.6 411.899994 A 4.9 4.9 0 0 1 294.5 406.999994 A 4.9 4.9 0 0 1 299.4 411.899994 Z" fill="#562617" transform="matrix(1, 0, 0, 1, 4.263256414560601e-14, 2.1316282072803006e-14)"/><path d="M 343.600012 411.899994 A 4.9 4.9 0 0 1 338.700012 416.799994 A 4.9 4.9 0 0 1 333.800012 411.899994 A 4.9 4.9 0 0 1 338.700012 406.999994 A 4.9 4.9 0 0 1 343.600012 411.899994 Z" fill="#562617" transform="matrix(1, 0, 0, 1, 4.263256414560601e-14, 2.1316282072803006e-14)"/><path fill="#E6E7E8" d="M347.8,465.5c9.4-7.3,9.1-21.6-0.8-28.3c-7.1-4.8-16.9-8.6-30.4-8.6s-23.3,3.8-30.4,8.6&#10;&#9;&#9;&#9;&#9;c-9.9,6.7-10.2,21-0.8,28.3c8.6,6.7,19.4,10.6,31.2,10.6l0,0C328.4,476.1,339.2,472.1,347.8,465.5z" transform="matrix(1, 0, 0, 1, 4.263256414560601e-14, 2.1316282072803006e-14)"/><path fill="#FFFFFF" d="M301.7,434.3c0,0.5,0,1,0,1.5c0,8,6.7,14.8,14.9,14.9l0,0c8.2-0.1,14.9-6.9,14.9-14.9c0-0.5,0-1,0-1.5&#10;&#9;&#9;&#9;&#9;C321.7,432.8,311.6,432.8,301.7,434.3z" transform="matrix(1, 0, 0, 1, 4.263256414560601e-14, 2.1316282072803006e-14)"/><path fill="#E6E7E8" d="M356.8,420.9c0,0-11.3-17.4-4.8-39.2c0,0,11.4,4.9,13.2,11s-1.8,6-1.8,6s8.2,17.2-1,15.8&#10;&#9;&#9;&#9;&#9;C362.3,414.5,360,418.8,356.8,420.9z" transform="matrix(1, 0, 0, 1, 4.263256414560601e-14, 2.1316282072803006e-14)"/><path fill="#E6E7E8" d="M277,420.9c0,0,11.3-17.4,4.8-39.2c0,0-11.4,4.9-13.2,11c-1.8,6.1,1.8,6,1.8,6s-8.2,17.2,1,15.8&#10;&#9;&#9;&#9;&#9;C271.5,414.5,273.7,418.8,277,420.9z" transform="matrix(1, 0, 0, 1, 4.263256414560601e-14, 2.1316282072803006e-14)"/><path d="M 327.400006 369.600006 A 10.8 3.9 0 0 1 316.600006 373.500006 A 10.8 3.9 0 0 1 305.800006 369.600006 A 10.8 3.9 0 0 1 316.600006 365.700006 A 10.8 3.9 0 0 1 327.400006 369.600006 Z" fill="#FABEAF" transform="matrix(1, 0, 0, 1, 4.263256414560601e-14, 2.1316282072803006e-14)"/><path d="M 339.200012 487.5 H 347.200012 V 521.700001 H 339.200012 V 487.5 Z" fill="#562617" transform="matrix(1, 0, 0, 1, 4.263256414560601e-14, 2.1316282072803006e-14)"/><path d="M 286.100006 487.5 H 294.100006 V 521.700001 H 286.100006 V 487.5 Z" fill="#562617" transform="matrix(1, 0, 0, 1, 4.263256414560601e-14, 2.1316282072803006e-14)"/><g transform="matrix(1, 0, 0, 1, 2.842170943040401e-14, 1.4210854715202004e-14)">
			<path fill="#D1D3D4" d="M692.8,502c0,0,17.3,15.9,40.9,15.9V374.2l-45.4,24.5L679,468L692.8,502z"/>
			<path fill="#D1D3D4" d="M774.9,502c0,0-17.3,15.9-40.9,15.9V374.2l45.4,24.5l9.4,69.4L774.9,502z"/>
		</g><path fill="#E6E7E8" d="M670.5,424.7c11.5-56.2,27.4-75.5,63.4-75.5v34.5c0,0-49.4,26.9-41.2,118.3&#10;&#9;&#9;&#9;C692.8,502,659,480.9,670.5,424.7z" transform="matrix(1, 0, 0, 1, 2.842170943040401e-14, 1.4210854715202004e-14)"/><path fill="#E6E7E8" d="M797.3,424.7c-11.5-56.2-27.4-75.5-63.4-75.5v34.5c0,0,49.4,26.9,41.2,118.3&#10;&#9;&#9;&#9;C775,502,808.8,480.9,797.3,424.7z" transform="matrix(1, 0, 0, 1, 2.842170943040401e-14, 1.4210854715202004e-14)"/><path fill="#EC008C" d="M675.7,521.7L675.7,521.7l116.3,0v0c0-18.9-15.3-34.2-34.2-34.2h-47.9C691,487.5,675.7,502.8,675.7,521.7&#10;&#9;&#9;&#9;&#9;z" transform="matrix(1, 0, 0, 1, 4.263256414560601e-14, 2.1316282072803006e-14)"/><g transform="matrix(1, 0, 0, 1, 4.263256414560601e-14, 2.1316282072803006e-14)">
					<path d="M 791.999988 424.600006 A 12.7 12.7 0 0 1 779.299988 437.300006 A 12.7 12.7 0 0 1 766.599988 424.600006 A 12.7 12.7 0 0 1 779.299988 411.900006 A 12.7 12.7 0 0 1 791.999988 424.600006 Z" fill="#F8AA97"/>
					<path d="M 786.799988 424.600006 A 7.5 7.5 0 0 1 779.299988 432.100006 A 7.5 7.5 0 0 1 771.799988 424.600006 A 7.5 7.5 0 0 1 779.299988 417.100006 A 7.5 7.5 0 0 1 786.799988 424.600006 Z" fill="#F58A74"/>
				</g><path d="M 701.100024 424.600006 A 12.7 12.7 0 0 1 688.400024 437.300006 A 12.7 12.7 0 0 1 675.700025 424.600006 A 12.7 12.7 0 0 1 688.400024 411.900006 A 12.7 12.7 0 0 1 701.100024 424.600006 Z" fill="#F8AA97" transform="matrix(1, 0, 0, 1, 4.263256414560601e-14, 2.1316282072803006e-14)"/><path d="M 695.900024 424.600006 A 7.5 7.5 0 0 1 688.400024 432.100006 A 7.5 7.5 0 0 1 680.900024 424.600006 A 7.5 7.5 0 0 1 688.400024 417.100006 A 7.5 7.5 0 0 1 695.900024 424.600006 Z" fill="#F58A74" transform="matrix(1, 0, 0, 1, 4.263256414560601e-14, 2.1316282072803006e-14)"/><path fill="#F8AA97" d="M722,450.8v38.7c0,6.5,5.3,11.9,11.9,11.9l0,0c6.5,0,11.9-5.3,11.9-11.9v-38.7H722z" transform="matrix(1, 0, 0, 1, 4.263256414560601e-14, 2.1316282072803006e-14)"/><path fill="#F58A74" d="M722,470.1c0,6.5,5.2,12,11.7,12.1c0,0,0.1,0,0.1,0l0,0c0,0,0.1,0,0.1,0c6.5,0,11.7-5.5,11.7-12.1v-15.6&#10;&#9;&#9;&#9;&#9;H722V470.1z" transform="matrix(1, 0, 0, 1, 4.263256414560601e-14, 2.1316282072803006e-14)"/><path fill="#F8AA97" d="M692.6,389.8v40.6c0,22.7,18.4,41.2,41.2,41.2h0c22.7,0,41.2-18.4,41.2-41.2v-40.6&#10;&#9;&#9;&#9;&#9;c0-15.3-12.4-27.7-27.7-27.7h-27C705,362.1,692.6,374.5,692.6,389.8z" transform="matrix(1, 0, 0, 1, 4.263256414560601e-14, 2.1316282072803006e-14)"/><path d="M 716.600012 411.899994 A 4.9 4.9 0 0 1 711.700012 416.799994 A 4.9 4.9 0 0 1 706.800012 411.899994 A 4.9 4.9 0 0 1 711.700012 406.999994 A 4.9 4.9 0 0 1 716.600012 411.899994 Z" fill="#562617" transform="matrix(1, 0, 0, 1, 4.263256414560601e-14, 2.1316282072803006e-14)"/><path d="M 760.800025 411.899994 A 4.9 4.9 0 0 1 755.900024 416.799994 A 4.9 4.9 0 0 1 751.000024 411.899994 A 4.9 4.9 0 0 1 755.900024 406.999994 A 4.9 4.9 0 0 1 760.800025 411.899994 Z" fill="#562617" transform="matrix(1, 0, 0, 1, 4.263256414560601e-14, 2.1316282072803006e-14)"/><path fill="#FFFFFF" d="M718.9,434.3c0,0.5,0,1,0,1.5c0,8,6.7,14.8,14.9,14.9l0,0c8.2-0.1,14.9-6.9,14.9-14.9c0-0.5,0-1,0-1.5&#10;&#9;&#9;&#9;&#9;C738.9,432.8,728.8,432.8,718.9,434.3z" transform="matrix(1, 0, 0, 1, 4.263256414560601e-14, 2.1316282072803006e-14)"/><path d="M 783.299976 435.5 A 2.7 2.7 0 0 1 780.599976 438.2 A 2.7 2.7 0 0 1 777.899976 435.5 A 2.7 2.7 0 0 1 780.599976 432.8 A 2.7 2.7 0 0 1 783.299976 435.5 Z" fill="#B9E5FB" transform="matrix(1, 0, 0, 1, 4.263256414560601e-14, 2.1316282072803006e-14)"/><path d="M 689.400012 435.5 A 2.7 2.7 0 0 1 686.700012 438.2 A 2.7 2.7 0 0 1 684.000012 435.5 A 2.7 2.7 0 0 1 686.700012 432.8 A 2.7 2.7 0 0 1 689.400012 435.5 Z" fill="#B9E5FB" transform="matrix(1, 0, 0, 1, 4.263256414560601e-14, 2.1316282072803006e-14)"/><path d="M 719 478.700012 H 748.799999 V 504.600012 H 719 V 478.700012 Z" fill="#EC008C" transform="matrix(1, 0, 0, 1, 4.263256414560601e-14, 2.1316282072803006e-14)"/><path d="M 727.099976 504 A 2 2 0 0 1 725.099976 506 A 2 2 0 0 1 723.099976 504 A 2 2 0 0 1 725.099976 502 A 2 2 0 0 1 727.099976 504 Z" fill="#F8C1D9" transform="matrix(1, 0, 0, 1, 4.263256414560601e-14, 2.1316282072803006e-14)"/><g transform="matrix(1, 0, 0, 1, 4.263256414560601e-14, 2.1316282072803006e-14)">
					<path d="M 716.400012 487.700012 A 2.2 2.2 0 0 1 714.200012 489.900012 A 2.2 2.2 0 0 1 712.000012 487.700012 A 2.2 2.2 0 0 1 714.200012 485.500012 A 2.2 2.2 0 0 1 716.400012 487.700012 Z" fill="#FCDFEB"/>
					<path d="M 716.400012 492.200012 A 2.2 2.2 0 0 1 714.200012 494.400012 A 2.2 2.2 0 0 1 712.000012 492.200012 A 2.2 2.2 0 0 1 714.200012 490.000012 A 2.2 2.2 0 0 1 716.400012 492.200012 Z" fill="#FCDFEB"/>
					<path d="M 718.100024 496.299988 A 2.2 2.2 0 0 1 715.900024 498.499988 A 2.2 2.2 0 0 1 713.700024 496.299988 A 2.2 2.2 0 0 1 715.900024 494.099988 A 2.2 2.2 0 0 1 718.100024 496.299988 Z" fill="#FCDFEB"/>
					<path d="M 720.299976 500.100006 A 2.2 2.2 0 0 1 718.099976 502.300006 A 2.2 2.2 0 0 1 715.899976 500.100006 A 2.2 2.2 0 0 1 718.099976 497.900006 A 2.2 2.2 0 0 1 720.299976 500.100006 Z" fill="#FCDFEB"/>
					<path d="M 723.600024 503.100006 A 2.2 2.2 0 0 1 721.400024 505.300006 A 2.2 2.2 0 0 1 719.200024 503.100006 A 2.2 2.2 0 0 1 721.400024 500.900006 A 2.2 2.2 0 0 1 723.600024 503.100006 Z" fill="#FCDFEB"/>
					<path d="M 727.100024 506.100006 A 2.2 2.2 0 0 1 724.900024 508.300006 A 2.2 2.2 0 0 1 722.700024 506.100006 A 2.2 2.2 0 0 1 724.900024 503.900006 A 2.2 2.2 0 0 1 727.100024 506.100006 Z" fill="#FCDFEB"/>
					<path d="M 731.600024 507.600006 A 2.2 2.2 0 0 1 729.400024 509.800006 A 2.2 2.2 0 0 1 727.200024 507.600006 A 2.2 2.2 0 0 1 729.400024 505.400006 A 2.2 2.2 0 0 1 731.600024 507.600006 Z" fill="#FCDFEB"/>
					<path d="M 736.100024 508.399994 A 2.2 2.2 0 0 1 733.900024 510.599994 A 2.2 2.2 0 0 1 731.700024 508.399994 A 2.2 2.2 0 0 1 733.900024 506.199994 A 2.2 2.2 0 0 1 736.100024 508.399994 Z" fill="#FCDFEB"/>
				</g><path d="M 755.799976 487.700012 A 2.2 2.2 0 0 1 753.599976 489.900012 A 2.2 2.2 0 0 1 751.399976 487.700012 A 2.2 2.2 0 0 1 753.599976 485.500012 A 2.2 2.2 0 0 1 755.799976 487.700012 Z" fill="#FCDFEB" transform="matrix(1, 0, 0, 1, 4.263256414560601e-14, 2.1316282072803006e-14)"/><path d="M 755.799976 492.200012 A 2.2 2.2 0 0 1 753.599976 494.400012 A 2.2 2.2 0 0 1 751.399976 492.200012 A 2.2 2.2 0 0 1 753.599976 490.000012 A 2.2 2.2 0 0 1 755.799976 492.200012 Z" fill="#FCDFEB" transform="matrix(1, 0, 0, 1, 4.263256414560601e-14, 2.1316282072803006e-14)"/><path d="M 754.100024 496.299988 A 2.2 2.2 0 0 1 751.900024 498.499988 A 2.2 2.2 0 0 1 749.700024 496.299988 A 2.2 2.2 0 0 1 751.900024 494.099988 A 2.2 2.2 0 0 1 754.100024 496.299988 Z" fill="#FCDFEB" transform="matrix(1, 0, 0, 1, 4.263256414560601e-14, 2.1316282072803006e-14)"/><path d="M 751.900012 500.100006 A 2.2 2.2 0 0 1 749.700012 502.300006 A 2.2 2.2 0 0 1 747.500012 500.100006 A 2.2 2.2 0 0 1 749.700012 497.900006 A 2.2 2.2 0 0 1 751.900012 500.100006 Z" fill="#FCDFEB" transform="matrix(1, 0, 0, 1, 4.263256414560601e-14, 2.1316282072803006e-14)"/><path d="M 748.600024 503.100006 A 2.2 2.2 0 0 1 746.400024 505.300006 A 2.2 2.2 0 0 1 744.200024 503.100006 A 2.2 2.2 0 0 1 746.400024 500.900006 A 2.2 2.2 0 0 1 748.600024 503.100006 Z" fill="#FCDFEB" transform="matrix(1, 0, 0, 1, 4.263256414560601e-14, 2.1316282072803006e-14)"/><path d="M 745.100024 506.100006 A 2.2 2.2 0 0 1 742.900024 508.300006 A 2.2 2.2 0 0 1 740.700024 506.100006 A 2.2 2.2 0 0 1 742.900024 503.900006 A 2.2 2.2 0 0 1 745.100024 506.100006 Z" fill="#FCDFEB" transform="matrix(1, 0, 0, 1, 4.263256414560601e-14, 2.1316282072803006e-14)"/><path d="M 740.600024 507.600006 A 2.2 2.2 0 0 1 738.400024 509.800006 A 2.2 2.2 0 0 1 736.200024 507.600006 A 2.2 2.2 0 0 1 738.400024 505.400006 A 2.2 2.2 0 0 1 740.600024 507.600006 Z" fill="#FCDFEB" transform="matrix(1, 0, 0, 1, 4.263256414560601e-14, 2.1316282072803006e-14)"/><g transform="matrix(1, 0, 0, 1, 4.263256414560601e-14, 2.1316282072803006e-14)">
				<g>
					
						<path d="M 757.5 414 H 775.6 V 415.2 H 757.5 V 414 Z" transform="matrix(0.944 -0.33 0.33 0.944 -93.8592 276.1257)" fill="#6D6E71"/>
				</g>
				<g>
					
						<path d="M 700.5 405.5 H 701.7 V 423.6 H 700.5 V 405.5 Z" transform="matrix(0.33 -0.944 0.944 0.33 78.4094 939.577)" fill="#6D6E71"/>
				</g>
			</g><path fill="#6D6E71" d="M741.3,418.6c-4.5-2.8-10.1-2.8-14.6,0l-0.6-1c4.9-3,10.9-3,15.8,0L741.3,418.6z" transform="matrix(1, 0, 0, 1, 4.263256414560601e-14, 2.1316282072803006e-14)"/><path fill="#D4EFFC" d="M707.3,417.6v4.9c0,1.7,1.4,3.1,3.1,3.1h14.2c1.7,0,3.1-1.4,3.1-3.1v-4.9c0-1.7-1.4-3.1-3.1-3.1h-14.2&#10;&#9;&#9;&#9;&#9;C708.7,414.6,707.3,415.9,707.3,417.6z" transform="matrix(1, 0, 0, 1, 4.263256414560601e-14, 2.1316282072803006e-14)"/><path fill="#D4EFFC" d="M739.9,417.6v4.9c0,1.7,1.4,3.1,3.1,3.1h14.2c1.7,0,3.1-1.4,3.1-3.1v-4.9c0-1.7-1.4-3.1-3.1-3.1H743&#10;&#9;&#9;&#9;&#9;C741.3,414.6,739.9,415.9,739.9,417.6z" transform="matrix(1, 0, 0, 1, 4.263256414560601e-14, 2.1316282072803006e-14)"/><path d="M 753.2999877929688 414.6000061035156 L 749.2999877929688 425.6000061035156 L 752.2999877929688 425.6000061035156 L 756.2999877929688 414.6000061035156 Z" fill="#FFFFFF" transform="matrix(1, 0, 0, 1, 4.263256414560601e-14, 2.1316282072803006e-14)"/><path d="M 756.7999877929688 414.6000061035156 L 752.7999877929688 425.6000061035156 L 753.7000122070312 425.6000061035156 L 757.7999877929688 414.6000061035156 Z" fill="#FFFFFF" transform="matrix(1, 0, 0, 1, 4.263256414560601e-14, 2.1316282072803006e-14)"/><path d="M 719.2000122070312 414.6000061035156 L 715.0999755859375 425.6000061035156 L 718.2000122070312 425.6000061035156 L 722.2000122070312 414.6000061035156 Z" fill="#FFFFFF" transform="matrix(1, 0, 0, 1, 4.263256414560601e-14, 2.1316282072803006e-14)"/><path d="M 722.7000122070312 414.6000061035156 L 718.7000122070312 425.6000061035156 L 719.5999755859375 425.6000061035156 L 723.5999755859375 414.6000061035156 Z" fill="#FFFFFF" transform="matrix(1, 0, 0, 1, 4.263256414560601e-14, 2.1316282072803006e-14)"/><path fill="#E6E7E8" d="M733.8,349.2l0.1,24.4c0,0,2.6,9.1,10.7,18.8c1.5,1.5,3.1,3.2,4.8,5.2c6.1,5.9,14.4,11.6,25.5,15.1h19.6&#10;&#9;&#9;&#9;C783.3,365.8,767.2,349.2,733.8,349.2z" transform="matrix(1, 0, 0, 1, 2.842170943040401e-14, 1.4210854715202004e-14)"/><path fill="#E6E7E8" d="M734,349.2l-0.1,24.4c0,0-2.6,9.1-10.7,18.8c-1.5,1.5-3.1,3.2-4.8,5.2c-6.1,5.9-14.4,11.6-25.5,15.1h-19.6&#10;&#9;&#9;&#9;C684.6,365.8,700.7,349.2,734,349.2z" transform="matrix(1, 0, 0, 1, 2.842170943040401e-14, 1.4210854715202004e-14)"/><path fill="#594A42" d="M675.7,254.4L675.7,254.4l116.3,0v0c0-18.9-15.3-34.2-34.2-34.2h-47.9&#10;&#9;&#9;&#9;C691.1,220.2,675.7,235.5,675.7,254.4z" transform="matrix(1, 0, 0, 1, 2.842170943040401e-14, 1.4210854715202004e-14)"/><g transform="matrix(1, 0, 0, 1, 4.263256414560601e-14, 2.1316282072803006e-14)">
				<path d="M 792.100024 157.300003 A 12.7 12.7 0 0 1 779.400024 170.000003 A 12.7 12.7 0 0 1 766.700025 157.300003 A 12.7 12.7 0 0 1 779.400024 144.600003 A 12.7 12.7 0 0 1 792.100024 157.300003 Z" fill="#F8AA97"/>
				<path d="M 786.900024 157.300003 A 7.5 7.5 0 0 1 779.400024 164.800003 A 7.5 7.5 0 0 1 771.900024 157.300003 A 7.5 7.5 0 0 1 779.400024 149.800003 A 7.5 7.5 0 0 1 786.900024 157.300003 Z" fill="#F58A74"/>
			</g><path d="M 701.100024 157.300003 A 12.7 12.7 0 0 1 688.400024 170.000003 A 12.7 12.7 0 0 1 675.700025 157.300003 A 12.7 12.7 0 0 1 688.400024 144.600003 A 12.7 12.7 0 0 1 701.100024 157.300003 Z" fill="#F8AA97" transform="matrix(1, 0, 0, 1, 4.263256414560601e-14, 2.1316282072803006e-14)"/><path d="M 695.900024 157.300003 A 7.5 7.5 0 0 1 688.400024 164.800003 A 7.5 7.5 0 0 1 680.900024 157.300003 A 7.5 7.5 0 0 1 688.400024 149.800003 A 7.5 7.5 0 0 1 695.900024 157.300003 Z" fill="#F58A74" transform="matrix(1, 0, 0, 1, 4.263256414560601e-14, 2.1316282072803006e-14)"/><path d="M 715.700012 220.199997 H 752.200012 V 254.399998 H 715.700012 V 220.199997 Z" fill="#FFC62D" transform="matrix(1, 0, 0, 1, 2.842170943040401e-14, 1.4210854715202004e-14)"/><path fill="#726658" d="M733.9,240.4c10.1,0,18.2-8.2,18.2-18.2v-2h-36.5v2C715.7,232.2,723.8,240.4,733.9,240.4z" transform="matrix(1, 0, 0, 1, 2.842170943040401e-14, 1.4210854715202004e-14)"/><path fill="#F8AA97" d="M722,183.5v38.7c0,6.5,5.3,11.9,11.9,11.9l0,0c6.5,0,11.9-5.3,11.9-11.9v-38.7H722z" transform="matrix(1, 0, 0, 1, 2.842170943040401e-14, 1.4210854715202004e-14)"/><path fill="#F58A74" d="M722,202.8c0,6.5,5.2,12,11.7,12.1c0,0,0.1,0,0.1,0l0,0c0,0,0.1,0,0.1,0c6.5,0,11.7-5.5,11.7-12.1v-15.6&#10;&#9;&#9;&#9;H722V202.8z" transform="matrix(1, 0, 0, 1, 2.842170943040401e-14, 1.4210854715202004e-14)"/><path fill="#F8AA97" d="M692.7,122.5v40.6c0,22.7,18.4,41.2,41.2,41.2h0c22.7,0,41.2-18.4,41.2-41.2v-40.6&#10;&#9;&#9;&#9;c0-15.3-12.4-27.7-27.7-27.7h-27C705.1,94.8,692.7,107.2,692.7,122.5z" transform="matrix(1, 0, 0, 1, 2.842170943040401e-14, 1.4210854715202004e-14)"/><path fill="#E19B8A" d="M775.1,145.4c0,0,0,11.1-3.5,21.6c-1.6,4.6-7.4,6.1-11,2.9c-5.8-5.3-14.4-9.7-26.6-9.7&#10;&#9;&#9;&#9;c-12.2,0-20.7,4.4-26.6,9.7c-3.6,3.3-9.5,1.8-11-2.9c-3.6-10.5-3.5-21.6-3.5-21.6s0,0,0,0.1v16.8c0,23.1,18.9,42.4,42,42&#10;&#9;&#9;&#9;c22.4-0.4,40.4-18.7,40.4-41.2L775.1,145.4C775.1,145.4,775.1,145.4,775.1,145.4z" transform="matrix(1, 0, 0, 1, 2.842170943040401e-14, 1.4210854715202004e-14)"/><path d="M 716.699988 144.600006 A 4.9 4.9 0 0 1 711.799988 149.500006 A 4.9 4.9 0 0 1 706.899988 144.600006 A 4.9 4.9 0 0 1 711.799988 139.700006 A 4.9 4.9 0 0 1 716.699988 144.600006 Z" fill="#562617" transform="matrix(1, 0, 0, 1, 4.263256414560601e-14, 2.1316282072803006e-14)"/><path d="M 760.9 144.600006 A 4.9 4.9 0 0 1 756 149.500006 A 4.9 4.9 0 0 1 751.1 144.600006 A 4.9 4.9 0 0 1 756 139.700006 A 4.9 4.9 0 0 1 760.9 144.600006 Z" fill="#562617" transform="matrix(1, 0, 0, 1, 4.263256414560601e-14, 2.1316282072803006e-14)"/><path fill="#FFFFFF" d="M719,167c0,0.5,0,1,0,1.5c0,8,6.7,14.8,14.9,14.9l0,0c8.2-0.1,14.9-6.9,14.9-14.9c0-0.5,0-1,0-1.5&#10;&#9;&#9;&#9;C738.9,165.5,728.9,165.5,719,167z" transform="matrix(1, 0, 0, 1, 2.842170943040401e-14, 1.4210854715202004e-14)"/><path fill="#552419" d="M777.4,94.8c0,0,6.5-9.8,1.9-12.9c-4.6-3.1-16.9,1.5-16.9,1.5s4.6-6.5-1.6-9.4c-6.2-2.9-20.7,7.8-20.7,7.8&#10;&#9;&#9;&#9;s4.6-5.7-2.7-7.6c-7.3-1.9-44.9,10-49.1,32.6c-3.8,20.3,4.2,38.5,4.2,38.5h0.1c0,0,11.6-12.9,11.6-34.7c0,0,12.4,3.2,29.6,3.2&#10;&#9;&#9;&#9;c17.2,0,29.5-3.2,29.5-3.2c0,21.8,11.6,34.7,11.6,34.7h0C792.1,108,777.4,94.8,777.4,94.8z" transform="matrix(1, 0, 0, 1, 2.842170943040401e-14, 1.4210854715202004e-14)"/><path fill="#9B8579" d="M752.1,254.4v-34.2h-6.4v-17.4c0,0,19.8,1,28,21.3l-12.9,30.3H752.1z" transform="matrix(1, 0, 0, 1, 2.842170943040401e-14, 1.4210854715202004e-14)"/><path fill="#9B8579" d="M715.7,254.4v-34.2h6.4v-17.4c0,0-19.8,1-28,21.3l12.9,30.3H715.7z" transform="matrix(1, 0, 0, 1, 2.842170943040401e-14, 1.4210854715202004e-14)"/><path fill="#00C0F3" d="M485.2,254.4L485.2,254.4l80,0v0c0-15.4-12.5-27.8-27.8-27.8h-24.4C497.7,226.6,485.2,239.1,485.2,254.4z" transform="matrix(1, 0, 0, 1, 2.842170943040401e-14, 1.4210854715202004e-14)"/><g transform="matrix(1, 0, 0, 1, 4.263256414560601e-14, 2.1316282072803006e-14)">
				<path d="M 579.900012 179.199997 A 9.2 9.2 0 0 1 570.700012 188.399997 A 9.2 9.2 0 0 1 561.500012 179.199997 A 9.2 9.2 0 0 1 570.700012 169.999997 A 9.2 9.2 0 0 1 579.900012 179.199997 Z" fill="#F8AA97"/>
				<path d="M 576.100012 179.199997 A 5.4 5.4 0 0 1 570.700012 184.599997 A 5.4 5.4 0 0 1 565.300012 179.199997 A 5.4 5.4 0 0 1 570.700012 173.799997 A 5.4 5.4 0 0 1 576.100012 179.199997 Z" fill="#F58A74"/>
			</g><path d="M 488.999988 179.199997 A 9.2 9.2 0 0 1 479.799988 188.399997 A 9.2 9.2 0 0 1 470.599988 179.199997 A 9.2 9.2 0 0 1 479.799988 169.999997 A 9.2 9.2 0 0 1 488.999988 179.199997 Z" fill="#F8AA97" transform="matrix(1, 0, 0, 1, 4.263256414560601e-14, 2.1316282072803006e-14)"/><path d="M 485.199988 179.199997 A 5.4 5.4 0 0 1 479.799988 184.599997 A 5.4 5.4 0 0 1 474.399988 179.199997 A 5.4 5.4 0 0 1 479.799988 173.799997 A 5.4 5.4 0 0 1 485.199988 179.199997 Z" fill="#F58A74" transform="matrix(1, 0, 0, 1, 4.263256414560601e-14, 2.1316282072803006e-14)"/><path fill="#F8AA97" d="M513.4,190v38.7c0,6.5,5.3,11.9,11.9,11.9h0c6.5,0,11.9-5.3,11.9-11.9V190H513.4z" transform="matrix(1, 0, 0, 1, 2.842170943040401e-14, 1.4210854715202004e-14)"/><path fill="#F58A74" d="M513.4,220.2c0,6.5,5.2,12,11.7,12.1c0,0,0.1,0,0.1,0l0,0c0,0,0.1,0,0.1,0c6.5,0,11.7-5.5,11.7-12.1v-15.6&#10;&#9;&#9;&#9;h-23.7V220.2z" transform="matrix(1, 0, 0, 1, 2.842170943040401e-14, 1.4210854715202004e-14)"/><path fill="#F8AA97" d="M484.1,172.5v12.4c0,22.7,18.4,41.2,41.2,41.2h0c22.7,0,41.2-18.4,41.2-41.2v-12.4&#10;&#9;&#9;&#9;c0-22.7-18.4-41.2-41.2-41.2h0C502.5,131.3,484.1,149.8,484.1,172.5z" transform="matrix(1, 0, 0, 1, 2.842170943040401e-14, 1.4210854715202004e-14)"/><path d="M 512.000012 174.600006 A 3.8 3.8 0 0 1 508.200012 178.400006 A 3.8 3.8 0 0 1 504.400012 174.600006 A 3.8 3.8 0 0 1 508.200012 170.800006 A 3.8 3.8 0 0 1 512.000012 174.600006 Z" fill="#562617" transform="matrix(1, 0, 0, 1, 4.263256414560601e-14, 2.1316282072803006e-14)"/><path d="M 546.099988 174.600006 A 3.8 3.8 0 0 1 542.299988 178.400006 A 3.8 3.8 0 0 1 538.499988 174.600006 A 3.8 3.8 0 0 1 542.299988 170.800006 A 3.8 3.8 0 0 1 546.099988 174.600006 Z" fill="#562617" transform="matrix(1, 0, 0, 1, 4.263256414560601e-14, 2.1316282072803006e-14)"/><path fill="#8DC63F" d="M527.1,187.7h-3.6c-6.6,0-11.9,5.3-11.9,11.9v0c0,6.6,5.3,11.9,11.9,11.9h3.6c6.6,0,11.9-5.3,11.9-11.9v0&#10;&#9;&#9;&#9;&#9;C538.9,193,533.6,187.7,527.1,187.7z" transform="matrix(1, 0, 0, 1, 4.263256414560601e-14, 2.1316282072803006e-14)"/><path fill="#FFFFFF" d="M525.3,211.4c-1.7,0-3.4-0.7-4.6-1.9c-1.2-1.2-1.9-2.9-1.9-4.6c0-1.7,0.7-3.4,1.9-4.6l1.9,1.9&#10;&#9;&#9;&#9;&#9;&#9;c-0.7,0.7-1.1,1.7-1.1,2.8c0,1,0.4,2,1.1,2.8c0.7,0.7,1.7,1.1,2.8,1.1s2-0.4,2.8-1.1c0.7-0.7,1.1-1.7,1.1-2.8c0-1-0.4-2-1.1-2.8&#10;&#9;&#9;&#9;&#9;&#9;l1.9-1.9c1.2,1.2,1.9,2.9,1.9,4.6c0,1.7-0.7,3.4-1.9,4.6C528.7,210.7,527,211.4,525.3,211.4z" transform="matrix(1, 0, 0, 1, 4.263256414560601e-14, 2.1316282072803006e-14)"/><path fill="#009444" d="M526,194.6h-1.5c-2.8,0-5,2.3-5,5v0c0,2.8,2.3,5,5,5h1.5c2.8,0,5-2.3,5-5v0&#10;&#9;&#9;&#9;&#9;C531.1,196.8,528.8,194.6,526,194.6z" transform="matrix(1, 0, 0, 1, 4.263256414560601e-14, 2.1316282072803006e-14)"/><path fill="#552419" d="M510.6,143c0,0-1.8,7.5,9.7,13.5C520.3,156.5,521.3,147.9,510.6,143z" transform="matrix(1, 0, 0, 1, 4.263256414560601e-14, 2.1316282072803006e-14)"/><path fill="#552419" d="M520.4,143c0,0-1.8,7.5,9.7,13.5C530.2,156.5,531.2,147.9,520.4,143z" transform="matrix(1, 0, 0, 1, 4.263256414560601e-14, 2.1316282072803006e-14)"/><path fill="#552419" d="M530.3,143c0,0-1.8,7.5,9.7,13.5C540,156.5,541,147.9,530.3,143z" transform="matrix(1, 0, 0, 1, 4.263256414560601e-14, 2.1316282072803006e-14)"/>
</svg>